# xmcd
#
# Track frame offsets: 
#        150
#        30690
#        63320
#        96857
#        121675
#        147362
#        182260
#        211922
#        236542
#        275287
#        293807
#
# Disc length: 4209 seconds
#
# Revision: 1
# Processed by: cddbd v1.5.2PL0 Copyright (c) Steve Scherf et al.
# Submitted via: ExactAudioCopy v0.99pb4
#
DISCID=95106f0b
DTITLE=Josh Roseman - New Constellations. Live in Vienna
DYEAR=2007
DGENRE=Jazz
TTITLE0=satta massaganna
TTITLE1=greasy feets music
TTITLE2=thoroughfare
TTITLE3=I should have known better
TTITLE4=olsen twins subpoena
TTITLE5=theme constellations
TTITLE6=b4 and after
TTITLE7=confucious
TTITLE8=purpled turtles liberations
TTITLE9=I wanna be with you
TTITLE10=I should have known better (live remix)
EXTD=YEAR: 2007
EXTT0=
EXTT1=
EXTT2=
EXTT3=
EXTT4=
EXTT5=
EXTT6=
EXTT7=
EXTT8=
EXTT9=
EXTT10=
PLAYORDER=
